<svg xmlns:dc="http://purl.org/dc/elements/1.1/" xmlns:cc="http://creativecommons.org/ns#" xmlns:rdf="http://www.w3.org/1999/02/22-rdf-syntax-ns#" xmlns:svg="http://www.w3.org/2000/svg" xmlns="http://www.w3.org/2000/svg" xmlns:sodipodi="http://sodipodi.sourceforge.net/DTD/sodipodi-0.dtd" xmlns:inkscape="http://www.inkscape.org/namespaces/inkscape" width="78.014664" height="76.86132" viewBox="0 0 20.64138 20.336225" version="1.1" id="svg59094" inkscape:version="0.92.0 r15299" sodipodi:docname="if.svg">
  <defs id="defs59088">
    <clipPath id="clipPath58727" clipPathUnits="userSpaceOnUse">
      <path inkscape:connector-curvature="0" id="path58725" d="M 479.055,0 H 595.276 V 114.803 H 479.055 Z"/>
    </clipPath>
  </defs>
  <sodipodi:namedview id="base" pagecolor="#ffffff" bordercolor="#666666" borderopacity="1.0" inkscape:pageopacity="0.0" inkscape:pageshadow="2" inkscape:zoom="4.3109215" inkscape:cx="47.024552" inkscape:cy="14.040514" inkscape:document-units="mm" inkscape:current-layer="layer1" showgrid="false" fit-margin-top="0" fit-margin-left="0" fit-margin-right="0" fit-margin-bottom="0" units="px" inkscape:window-width="1280" inkscape:window-height="744" inkscape:window-x="-4" inkscape:window-y="-4" inkscape:window-maximized="1"/>
  <metadata id="metadata59091">
    <rdf:RDF>
      <cc:Work rdf:about="">
        <dc:format>image/svg+xml</dc:format>
        <dc:type rdf:resource="http://purl.org/dc/dcmitype/StillImage"/>
        <dc:title/>
      </cc:Work>
    </rdf:RDF>
  </metadata>
  <g inkscape:label="Layer 1" inkscape:groupmode="layer" id="layer1" transform="translate(35.876436,-132.21199)">
    <g id="g59335" transform="translate(0.13229138,-0.13229781)">
      <path d="m -15.499639,142.51205 c 0,5.5439 -4.561769,10.03617 -10.188928,10.03617 -5.626805,0 -10.187869,-4.49227 -10.187869,-10.03617 0,-5.54214 4.561064,-10.03547 10.187869,-10.03547 5.627159,0 10.188928,4.49333 10.188928,10.03547" style="fill:#00a1e0;fill-opacity:1;fill-rule:nonzero;stroke:none;stroke-width:0.35277778" id="path58731" inkscape:connector-curvature="0"/>
      <g transform="matrix(0.35277777,0,0,-0.35277777,-26.997443,139.79743)" id="g58733">
        <path inkscape:connector-curvature="0" id="path58735" style="fill:#ffffff;fill-opacity:1;fill-rule:nonzero;stroke:none" d="m 0,0 c -0.037,-0.129 0.043,-0.295 0.223,-0.295 l 2.458,0.033 c 0,0 -3.308,-13.259 -3.977,-15.942 -0.839,-3.369 -2.195,-6.801 -3.16,-8.015 -0.864,-1.089 -1.44,-1.425 -2.027,-1.425 -0.818,-0.001 -1.243,0.59 -1.477,1.563 -0.157,0.702 -0.613,1.664 -1.628,1.664 -1.052,0 -2.496,-1.195 -2.496,-2.637 0,-1.951 3.258,-2.389 4.348,-2.389 2.147,0 4.923,1.367 6.794,3.51 2.379,2.691 3.7,6.064 4.936,10.814 l 3.021,12.878 3.164,-0.055 c 0.256,0 0.371,0.179 0.418,0.312 l 0.41,1.179 C 11.053,1.331 10.98,1.499 10.781,1.499 H 7.514 c 0.78,2.731 1.952,6.765 4.174,8.988 0.195,0.196 0.749,0.672 1.256,0.677 0.887,0.008 1.136,-0.5 1.506,-1.319 0.363,-0.806 0.301,-2.191 1.526,-2.191 1.414,0 2.478,1.581 2.478,2.673 0,1.482 -2.569,2.44 -4.621,2.44 -2.416,0 -4.722,-1.031 -6.398,-2.707 C 5.027,7.611 3.921,3.994 3.181,1.498 L 0.72,1.532 C 0.552,1.532 0.412,1.387 0.374,1.266 Z"/>
      </g>
      <g transform="matrix(0.35277777,0,0,-0.35277777,-22.515119,144.53886)" id="g58737">
        <path inkscape:connector-curvature="0" id="path58739" style="fill:#ffffff;fill-opacity:1;fill-rule:nonzero;stroke:none" d="m 0,0 c -0.027,-0.64 -0.396,-2.466 -2.416,-2.466 -1.184,0 -2.018,0.768 -1.958,2.114 0.059,1.377 1.039,2.5 2.387,2.532 C -1.027,2.18 0.07,1.57 0,0"/>
      </g>
      <g transform="matrix(0.35277777,0,0,-0.35277777,-20.032198,144.53886)" id="g58741">
        <path inkscape:connector-curvature="0" id="path58743" style="fill:#ffffff;fill-opacity:1;fill-rule:nonzero;stroke:none" d="m 0,0 c -0.027,-0.64 -0.395,-2.466 -2.415,-2.466 -1.185,0 -2.018,0.768 -1.959,2.114 0.059,1.377 1.04,2.5 2.387,2.532 C -1.027,2.18 0.07,1.57 0,0"/>
      </g>
      <g transform="matrix(0.35277777,0,0,-0.35277777,-17.548361,144.53886)" id="g58745">
        <path inkscape:connector-curvature="0" id="path58747" style="fill:#ffffff;fill-opacity:1;fill-rule:nonzero;stroke:none" d="m 0,0 c -0.027,-0.64 -0.396,-2.466 -2.417,-2.466 -1.183,0 -2.017,0.768 -1.958,2.114 0.06,1.377 1.04,2.5 2.388,2.532 C -1.028,2.18 0.069,1.57 0,0"/>
      </g>
      <g transform="matrix(0.35277777,0,0,-0.35277777,-28.243348,136.12924)" id="g58749">
        <path inkscape:connector-curvature="0" id="path58751" style="fill:#ffffff;fill-opacity:1;fill-rule:nonzero;stroke:none" d="m 0,0 c -1.436,-0.034 -2.498,-1.229 -2.59,-2.696 -0.087,-1.435 0.786,-2.256 2.049,-2.256 2.15,0 2.577,1.948 2.62,2.631 C 2.181,-0.648 1.026,0 0,0"/>
      </g>
      <g transform="matrix(0.35277777,0,0,-0.35277777,-29.480786,142.78612)" id="g58753">
        <path inkscape:connector-curvature="0" id="path58755" style="fill:#ffffff;fill-opacity:1;fill-rule:nonzero;stroke:none" d="m 0,0 2.26,5.455 c 0.468,1.093 1.027,2.506 1.027,3.441 0,1.209 -0.918,1.503 -1.58,1.503 -3.04,0 -6.303,-3.552 -7.564,-4.982 -0.089,-0.105 -0.151,-0.28 0.035,-0.46 l 0.573,-0.546 c 0.107,-0.098 0.3,-0.104 0.419,0.026 0,0 1.498,1.629 2.045,2.03 0.145,0.112 0.379,0.262 0.515,0.262 0.194,0 0.29,-0.29 0.29,-0.447 0,-0.507 -0.51,-1.714 -0.745,-2.338 l -2.343,-5.928 c -0.818,-1.988 -1.201,-3.043 -1.201,-3.94 0,-1.012 0.566,-1.812 1.971,-1.812 3.252,-0.001 7.357,4.899 7.357,4.899 0.161,0.183 0.081,0.361 -0.018,0.453 l -0.607,0.581 c -0.1,0.097 -0.287,0.132 -0.435,-0.018 0,0 -2.197,-2.445 -2.945,-2.445 -0.338,0 -0.328,0.414 -0.328,0.481 0,0.36 0.222,1.017 0.337,1.33 z"/>
      </g>
    </g>
  </g>
</svg>