<svg xmlns="http://www.w3.org/2000/svg" width="210" height="51.296" viewBox="0 0 210 51.296">
    <defs>
        <style>
            .cls-1{fill:#1d2833}
        </style>
    </defs>
    <g id="Logo" transform="translate(-211.034 -246.461)">
        <path id="Path_570" d="M236.681 297.757a25.648 25.648 0 1 1 25.648-25.648 25.677 25.677 0 0 1-25.648 25.648zm0-45.6a19.951 19.951 0 1 0 19.95 19.951 19.974 19.974 0 0 0-19.949-19.95z" class="cls-1"/>
        <circle id="Ellipse_24" cx="11.312" cy="11.312" r="11.312" fill="#e3000f" transform="translate(225.369 260.797)"/>
        <path id="Path_571" d="M411.9 269.957c-.5-.124-.974-.241-1.318-.349-1.26-.4-1.933-1.1-1.849-1.93.18-1.758 1.876-2.02 2.871-2.02a9.486 9.486 0 0 1 5.738 2.15l.1.083 3.088-3.73-.079-.08a12.7 12.7 0 0 0-8.851-3.381c-4.271 0-7.406 2.6-7.8 6.473-.33 3.236 1.747 6.047 5.293 7.162.5.158 1.054.293 1.639.437 3.543.873 5.343 1.65 5.343 3.474 0 1.629-1.835 2.481-3.648 2.481a7.365 7.365 0 0 1-6.092-2.418l-.086-.091-3.613 3.392.086.091a12.174 12.174 0 0 0 9.7 3.982c4.9 0 8.6-3.2 8.6-7.437.012-6.04-6.139-7.554-9.122-8.289z" class="cls-1"/>
        <path id="Path_572" d="M298.345 260.617a10.379 10.379 0 0 0-7.983 3.766 8.18 8.18 0 0 0-3.07-2.739 9.1 9.1 0 0 0-4.234-1.027 8.9 8.9 0 0 0-6.506 2.653v-2.045h-5.615v23.938h5.615v-14.5a5.074 5.074 0 0 1 1.382-3.663 4.885 4.885 0 0 1 6.907 0 5.073 5.073 0 0 1 1.383 3.659v14.5h5.615v-14.5a5.074 5.074 0 0 1 1.382-3.659 4.885 4.885 0 0 1 6.907 0 5.077 5.077 0 0 1 1.382 3.659v14.5h5.615V269.7a8.953 8.953 0 0 0-2.491-6.592 8.566 8.566 0 0 0-6.289-2.491z" class="cls-1"/>
        <path id="Rectangle_108" d="M0 0H5.615V23.939H0z" class="cls-1" transform="translate(367.799 261.225)"/>
        <path id="Path_573" d="M357.6 262.977a11.253 11.253 0 0 0-7.274-2.36 11.8 11.8 0 0 0-8.694 3.632 12.969 12.969 0 0 0 0 17.891 11.8 11.8 0 0 0 8.694 3.631 11.253 11.253 0 0 0 7.274-2.36v1.752h5.027v-33.478H357.6zm-.984 4.814a7.978 7.978 0 0 1 .984 1.177v8.467a8.174 8.174 0 0 1-.984 1.188 7.666 7.666 0 0 1-10.758-.026 7.634 7.634 0 0 1 0-10.806 7.634 7.634 0 0 1 10.758 0z" class="cls-1"/>
        <path id="Path_574" d="M393.673 275.725a5.074 5.074 0 0 1-1.382 3.659 4.885 4.885 0 0 1-6.907 0 5.069 5.069 0 0 1-1.384-3.659v-14.5h-5.616v15.614a8.569 8.569 0 0 0 8.781 8.932 8.9 8.9 0 0 0 6.506-2.653v2.045h5.615v-23.938h-5.615z" class="cls-1"/>
        <path id="Path_575" d="M329.987 277.414a7.453 7.453 0 0 1-6.147 3.147 8.208 8.208 0 0 1-4.913-1.571 6.427 6.427 0 0 1-2.583-4.254h19.137l.027-.089a7.478 7.478 0 0 0 .157-1.7c-.035-3.6-.91-6.377-3.387-8.753a12.933 12.933 0 0 0-17.94.077 12.065 12.065 0 0 0-3.733 8.922 11.9 11.9 0 0 0 3.81 8.974 13.111 13.111 0 0 0 9.324 3.6 12.7 12.7 0 0 0 10.4-4.927zM319.3 267.147a7.185 7.185 0 0 1 4.081-1.32 7.819 7.819 0 0 1 4.445 1.22 5.3 5.3 0 0 1 2.085 3.491h-13.235a6.793 6.793 0 0 1 2.624-3.391z" class="cls-1"/>
    </g>
</svg>
